<svg width="102" height="98" viewBox="0 0 102 98" fill="none" xmlns="http://www.w3.org/2000/svg">
<path d="M33.0979 48.9825L26.1098 54.3161L23.21 51.403L19.7392 53.407L20.9643 57.2868L12.7611 61.0081L7.11287 37.2329L15.3308 31.9199L33.0979 48.9825ZM19.9726 47.0612L15.757 42.4315L17.6891 48.3795L19.9726 47.0612Z" fill="#ECECEC"/>
<path d="M36.5063 20.222L39.3628 27.1383C39.0216 27.227 38.6951 27.3411 38.3832 27.4806C38.0713 27.6201 37.7682 27.7748 37.4739 27.9447C36.7229 28.3783 36.066 28.8929 35.5032 29.4884C34.9346 30.0738 34.5036 30.7218 34.2102 31.4325C33.927 32.1373 33.8039 32.8849 33.8408 33.6755C33.8879 34.4602 34.1488 35.2636 34.6234 36.0856C34.9281 36.6134 35.2729 37.0232 35.658 37.3151C36.0532 37.6011 36.4762 37.7831 36.9272 37.8611C37.3781 37.939 37.8468 37.9187 38.3332 37.8003C38.8196 37.6818 39.3115 37.4791 39.8088 37.1919C40.1843 36.9751 40.5516 36.709 40.9106 36.3934C41.2697 36.0778 41.6091 35.7398 41.9287 35.3794C42.2483 35.0189 42.5461 34.644 42.822 34.2547C43.0979 33.8654 43.3404 33.4886 43.5495 33.1243L47.0715 40.6307C46.7928 41.0622 46.467 41.4939 46.0939 41.9258C45.7251 42.3417 45.3323 42.7511 44.9155 43.1542C44.4928 43.5471 44.0554 43.9146 43.6035 44.2567C43.1515 44.5989 42.7022 44.8988 42.2557 45.1567C40.9668 45.9008 39.6265 46.3566 38.2347 46.5242C36.8429 46.6917 35.4958 46.5967 34.1933 46.2391C32.8908 45.8815 31.6758 45.2772 30.5485 44.4261C29.4254 43.5589 28.4859 42.4708 27.73 41.1616C26.7281 39.4261 26.0334 37.6486 25.6459 35.8291C25.2525 33.9994 25.204 32.2277 25.5001 30.5141C25.7963 28.8005 26.4614 27.1986 27.4955 25.7085C28.5398 24.2125 29.9905 22.9284 31.8477 21.8561C32.548 21.4518 33.2957 21.0946 34.0909 20.7843C34.8962 20.4682 35.7013 20.2808 36.5063 20.222Z" fill="#ECECEC"/>
<path d="M51.5653 10.797C52.0551 11.7861 52.5442 12.7622 53.0326 13.7252C53.5209 14.6881 53.9998 15.67 54.4694 16.6709L48.2082 20.7324L49.1634 22.7384L53.6999 20.1192L56.0896 25.0318L51.6105 27.8207L52.7415 30.1312L56.5168 27.9515L59.1961 26.4046C59.7797 27.5561 60.3554 28.7055 60.923 29.8527C61.4949 30.9839 62.0748 32.1173 62.6628 33.2528L49.7162 41.1335L37.5296 18.9005L51.5653 10.797Z" fill="#ECECEC"/>
<path d="M75.6846 15.3424C76.4873 16.7328 76.9469 18.0912 77.0632 19.4178C77.1839 20.7284 77.0223 21.9719 76.5784 23.1483C76.1446 24.3189 75.4641 25.4019 74.5368 26.3974C73.6197 27.3869 72.5166 28.2538 71.2277 28.9979C70.7305 29.2851 70.1443 29.5355 69.4694 29.7493C68.8046 29.9572 68.1121 30.1405 67.3918 30.2992C66.6657 30.4478 65.954 30.5745 65.2568 30.6794C64.5639 30.7682 63.9406 30.8371 63.387 30.8861L60.4357 24.2275C61.5972 24.247 62.7797 24.092 63.9832 23.7625C65.191 23.417 66.3024 22.9513 67.3172 22.3654C67.5101 22.2541 67.7406 22.1142 68.0087 21.9459C68.271 21.7674 68.5034 21.5723 68.706 21.3606C68.9128 21.1329 69.0586 20.8932 69.1432 20.6413C69.2279 20.3895 69.1881 20.1215 69.0241 19.8373C68.9128 19.6445 68.7581 19.5173 68.5602 19.4557C68.3563 19.3839 68.1346 19.3631 67.8949 19.3932C67.6493 19.4132 67.393 19.4732 67.126 19.5732C66.8532 19.6631 66.5942 19.7653 66.349 19.8798C66.1039 19.9942 65.8798 20.1101 65.6768 20.2273C65.4739 20.3444 65.3115 20.4382 65.1897 20.5085C64.3169 21.0124 63.4324 21.3201 62.536 21.4317C61.6498 21.5374 60.7927 21.4707 59.9645 21.2316C59.1407 20.9766 58.3728 20.5607 57.6609 19.9839C56.9432 19.3969 56.3323 18.6671 55.8284 17.7943C55.137 16.5967 54.7573 15.3883 54.6894 14.1691C54.6258 12.9339 54.8044 11.755 55.2253 10.6324C55.6505 9.49385 56.2832 8.4452 57.1234 7.48648C57.9637 6.52776 58.942 5.72614 60.0583 5.0816C60.5556 4.79449 61.0798 4.51889 61.631 4.2548C62.1763 3.98056 62.7341 3.73969 63.3045 3.5322C63.8849 3.31886 64.4648 3.13967 65.0441 2.99464C65.6235 2.84961 66.1979 2.75476 66.7675 2.71007L69.7574 9.22463C68.9325 9.38965 68.0955 9.61577 67.2465 9.90299C66.4017 10.1742 65.6191 10.5178 64.8985 10.9338C64.7666 11.01 64.597 11.1147 64.3897 11.2479C64.1867 11.3651 63.9773 11.5063 63.7615 11.6715C63.5499 11.8207 63.3421 11.988 63.138 12.1736C62.9339 12.3591 62.7668 12.5502 62.6369 12.747C62.5011 12.9337 62.4184 13.1303 62.3888 13.3368C62.3592 13.5434 62.4051 13.7401 62.5266 13.9271C62.6656 14.1445 62.8523 14.2803 63.0866 14.3345C63.3251 14.3727 63.5896 14.362 63.88 14.3026C64.1748 14.2272 64.4781 14.1197 64.79 13.9802C65.112 13.8349 65.4231 13.6823 65.7233 13.5226C66.0176 13.3526 66.2916 13.1944 66.5454 13.048C66.7932 12.8913 67.0042 12.7763 67.1783 12.7028C68.0195 12.2848 68.8498 12.0355 69.6692 11.9548C70.4887 11.8741 71.2623 11.9484 71.9901 12.1777C72.728 12.4012 73.41 12.7855 74.036 13.3307C74.6663 13.8599 75.2158 14.5305 75.6846 15.3424Z" fill="#ECECEC"/>
<path d="M45.5143 55.0022C46.1516 56.1061 46.8014 57.3521 47.4635 58.7401C48.1256 60.1281 48.7464 61.5996 49.326 63.1546C49.9055 64.7096 50.4234 66.33 50.8796 68.0159C51.3421 69.6783 51.6775 71.3444 51.8857 73.0143C52.094 74.6842 52.1579 76.328 52.0775 77.9458C52.0035 79.54 51.7282 81.0615 51.2518 82.5101C50.7817 83.9351 50.0845 85.2426 49.1604 86.4326C48.2449 87.6374 47.0487 88.6662 45.5718 89.5189C43.8414 90.5179 42.171 91.1044 40.5608 91.2782C38.9741 91.4584 37.4544 91.3412 36.0018 90.9268C34.5406 90.4974 33.1574 89.8241 31.8521 88.9069C30.5382 87.9748 29.3123 86.9023 28.1745 85.6895C27.0281 84.4618 25.9658 83.1557 24.9874 81.7713C24.0154 80.3633 23.1375 78.9806 22.3538 77.6231C21.148 75.5345 20.0509 73.3932 19.0626 71.199C18.0656 68.99 17.1625 66.7366 16.3531 64.4391L27.0581 58.7957C28.0075 61.3703 29.0178 63.9298 30.0888 66.474C31.1662 68.9946 32.394 71.4484 33.772 73.8353C33.9184 74.0889 34.1455 74.465 34.4533 74.9636C34.7673 75.4386 35.1351 75.9722 35.5565 76.5643C35.9693 77.1415 36.4174 77.7282 36.9008 78.3243C37.3905 78.8968 37.8873 79.3956 38.3913 79.8207C38.8953 80.2458 39.3806 80.5524 39.8472 80.7405C40.3288 80.9199 40.756 80.902 41.129 80.6867C41.5616 80.4369 41.8332 80.0116 41.9437 79.4107C42.0457 78.7949 42.0254 78.0707 41.8828 77.238C41.7551 76.3968 41.5299 75.4726 41.207 74.4656C40.8842 73.4586 40.51 72.4314 40.0844 71.3843C39.6588 70.3371 39.2034 69.3071 38.7182 68.2944C38.2478 67.2731 37.7939 66.3318 37.3563 65.4705C36.9337 64.6007 36.5446 63.8407 36.1892 63.1906C35.8338 62.5405 35.5656 62.0589 35.3847 61.7456C34.7129 60.582 34.0231 59.4388 33.3151 58.3159C32.6135 57.1696 31.8938 56.0436 31.156 54.9379L41.6284 48.8917C42.996 50.847 44.2913 52.8839 45.5143 55.0022Z" fill="#ECECEC"/>
<path d="M75.3114 42.2742C76.1468 43.7213 76.6712 45.1291 76.8846 46.4977C77.0979 47.8663 77.0653 49.188 76.7868 50.4626C76.5233 51.7287 76.0522 52.9454 75.3737 54.1129C74.6952 55.2804 73.8818 56.3865 72.9335 57.4312C71.9915 58.4525 70.9531 59.41 69.8183 60.3039C68.6749 61.1828 67.5107 61.9743 66.3259 62.6783L72.3463 73.1059L61.9187 79.1263C59.9463 75.7101 57.9901 72.3045 56.0499 68.9095C54.1097 65.5145 52.1597 62.0854 50.2 58.6221C49.179 56.7849 48.1357 54.9606 47.07 53.1493C46.0043 51.3379 44.9823 49.4815 44.0038 47.58C45.586 45.9106 47.25 44.383 48.9958 42.9971C50.7417 41.6112 52.629 40.3326 54.6579 39.1613C55.8066 38.4981 57.0112 37.9319 58.2719 37.4626C59.5239 36.9784 60.7883 36.6363 62.0651 36.4362C63.3568 36.2274 64.6268 36.1705 65.875 36.2654C67.1295 36.3367 68.3261 36.6006 69.4648 37.057C70.6035 37.5135 71.6694 38.1711 72.6625 39.0298C73.6619 39.8651 74.5448 40.9465 75.3114 42.2742ZM65.8153 48.7712C65.2555 47.8015 64.5222 47.2204 63.6154 47.0279C62.7149 46.8119 61.7947 46.9751 60.8549 47.5177C60.5416 47.6986 60.2307 47.9179 59.922 48.1757C59.6197 48.4099 59.3408 48.6505 59.0855 48.8973L62.5895 55.5864C62.8155 55.4956 63.0255 55.3943 63.2195 55.2823C63.4134 55.1704 63.6148 55.0541 63.8236 54.9335C64.3607 54.6234 64.8237 54.2368 65.2126 53.7736C65.6165 53.3017 65.9176 52.7897 66.116 52.2376C66.3057 51.6705 66.3833 51.0986 66.3487 50.5219C66.3204 49.9217 66.1426 49.3381 65.8153 48.7712Z" fill="#ECECEC"/>
<path d="M80.737 23.5077L92.4932 48.1076L84.2138 52.8877L69.7724 29.8382L80.737 23.5077ZM96.8304 54.7929C97.2094 55.4493 97.4357 56.1342 97.5094 56.8475C97.5831 57.5608 97.5242 58.2512 97.3327 58.9186C97.1648 59.5924 96.8663 60.2123 96.4372 60.7783C96.0167 61.3592 95.4858 61.8348 94.8443 62.2051C94.1879 62.5841 93.5031 62.8104 92.7898 62.8841C92.0851 62.9727 91.3916 62.9256 90.7092 62.7427C90.0503 62.5662 89.4304 62.2677 88.8495 61.8472C88.2836 61.4182 87.8111 60.8754 87.4321 60.219C87.0618 59.5776 86.828 58.897 86.7308 58.1774C86.6485 57.4492 86.6956 56.7557 86.8721 56.0968C87.055 55.4144 87.3566 54.7828 87.7771 54.2019C88.1976 53.621 88.736 53.1411 89.3924 52.7621C90.0338 52.3918 90.7112 52.1697 91.4245 52.096C92.1378 52.0224 92.8282 52.0813 93.4957 52.2727C94.1695 52.4406 94.8011 52.7423 95.3906 53.1777C95.9801 53.6131 96.46 54.1515 96.8304 54.7929Z" fill="#ECECEC"/>
</svg>
